<svg
  width="304"
  height="195"
  viewBox="0 0 304 195"
  fill="none"
  xmlns="http://www.w3.org/2000/svg"
  role="img"
  aria-labelledby="titleId descId"
>
  <title id="titleId">borakitirci's GitHub Stats</title>
  <desc id="descId">
    Total Stars Earned, Total Commits, Total PRs,
    Total Issues, Contributed to last year.
  </desc>

  <style>
    .header {
      font: 600 18px 'Segoe UI', Ubuntu, Sans-Serif;
      fill: #60A5FA;
      animation: fadeInAnimation 0.8s ease-in-out forwards;
    }

    .stat {
      font: 600 14px 'Segoe UI', Ubuntu, "Helvetica Neue", Sans-Serif;
      fill: #C9D1D9;
    }

    .stagger {
      opacity: 0;
      animation: fadeInAnimation 0.3s ease-in-out forwards;
    }

    .bold {
      font-weight: 700;
    }

    .icon {
      fill: #60A5FA;
      display: block;
    }

    @keyframes fadeInAnimation {
      from { opacity: 0; }
      to { opacity: 1; }
    }
  </style>

  <rect
    x="0.5"
    y="0.5"
    rx="4.5"
    height="99%"
    width="303"
    fill="#0D1117"
  />

  <g transform="translate(25, 35)">
    <text class="header" x="0" y="0">
      borakitirci's GitHub Stats
    </text>
  </g>

  <g transform="translate(0, 55)">
    <g class="stagger" transform="translate(25, 0)">
      <svg class="icon" viewBox="0 0 16 16" width="16" height="16">
        <path d="M8 .25a.75.75 0 01.673.418l1.882 3.815 4.21.612a.75.75 0 01.416 1.279l-3.046 2.97.719 4.192a.75.75 0 01-1.088.791L8 12.347l-3.766 1.98a.75.75 0 01-1.088-.79l.72-4.194L.818 6.374a.75.75 0 01.416-1.28l4.21-.611L7.327.668A.75.75 0 018 .25z"/>
      </svg>
      <text class="stat bold" x="25" y="12.5">Total Stars Earned:</text>
      <text class="stat bold" x="224.01" y="12.5">—</text>
    </g>

    <g class="stagger" style="animation-delay:150ms" transform="translate(25, 25)">
      <svg class="icon" viewBox="0 0 16 16" width="16" height="16">
        <path d="M1.643 3.143L.427 1.927A.25.25 0 000 2.104V5.75c0 .138.112.25.25.25h3.646a.25.25 0 00.177-.427L2.715 4.215a6.5 6.5 0 11-1.18 4.458.75.75 0 10-1.493.154 8.001 8.001 0 101.6-5.684z"/>
      </svg>
      <text class="stat bold" x="25" y="12.5">Total Commits:</text>
      <text class="stat bold" x="224.01" y="12.5">—</text>
    </g>

    <g class="stagger" style="animation-delay:300ms" transform="translate(25, 50)">
      <svg class="icon" viewBox="0 0 16 16" width="16" height="16">
        <path d="M7.177 3.073L9.573.677A.25.25 0 0110 .854v4.792a.25.25 0 01-.427.177L7.177 3.427a.25.25 0 010-.354zM3.75 2.5a.75.75 0 100 1.5.75.75 0 000-1.5zm-2.25.75a2.25 2.25 0 113 2.122v5.256a2.251 2.251 0 11-1.5 0V5.372A2.25 2.25 0 011.5 3.25zM11 2.5h-1V4h1a1 1 0 011 1v5.628a2.251 2.251 0 101.5 0V5A2.5 2.5 0 0011 2.5z"/>
      </svg>
      <text class="stat bold" x="25" y="12.5">Total PRs:</text>
      <text class="stat bold" x="224.01" y="12.5">—</text>
    </g>

    <g class="stagger" style="animation-delay:450ms" transform="translate(25, 75)">
      <svg class="icon" viewBox="0 0 16 16" width="16" height="16">
        <path d="M8 1.5a6.5 6.5 0 100 13 6.5 6.5 0 000-13zM0 8a8 8 0 1116 0A8 8 0 010 8zm9 3a1 1 0 11-2 0 1 1 0 012 0zm-.25-6.25a.75.75 0 00-1.5 0v3.5a.75.75 0 001.5 0z"/>
      </svg>
      <text class="stat bold" x="25" y="12.5">Total Issues:</text>
      <text class="stat bold" x="224.01" y="12.5">—</text>
    </g>

    <g class="stagger" style="animation-delay:600ms" transform="translate(25, 100)">
      <svg class="icon" viewBox="0 0 16 16" width="16" height="16">
        <path d="M2 2.5A2.5 2.5 0 014.5 0h8.75a.75.75 0 01.75.75v12.5a.75.75 0 01-.75.75h-2.5a.75.75 0 110-1.5h1.75v-2h-8a1 1 0 00-.714 1.7.75.75 0 01-1.072 1.05A2.495 2.495 0 012 11.5v-9z"/>
      </svg>
      <text class="stat bold" x="25" y="12.5">Contributed (last year):</text>
      <text class="stat bold" x="224.01" y="12.5">—</text>
    </g>
  </g>
</svg>
